<mxfile host="app.diagrams.net" modified="2024-01-26T15:11:51.421Z" agent="Mozilla/5.0 (Windows NT 10.0; Win64; x64) AppleWebKit/537.36 (KHTML, like Gecko) Chrome/121.0.0.0 Safari/537.36" etag="S_B5-ammBQ7qgEbamgbR" version="23.0.2" type="device">
  <diagram name="Seite-1" id="zcTB1IPGnx5BT9b8Xr2F">
    <mxGraphModel dx="1050" dy="634" grid="1" gridSize="10" guides="1" tooltips="1" connect="1" arrows="1" fold="1" page="1" pageScale="1" pageWidth="1169" pageHeight="827" math="0" shadow="0">
      <root>
        <mxCell id="0" />
        <mxCell id="1" parent="0" />
        <mxCell id="_jrcHpareaEvk5Rr-TCT-1" value="&lt;font style=&quot;font-size: 16px;&quot;&gt;QSerialPort library&lt;/font&gt;" style="rounded=1;whiteSpace=wrap;html=1;fillColor=#f8cecc;strokeColor=#b85450;" vertex="1" parent="1">
          <mxGeometry x="440" y="140" width="120" height="60" as="geometry" />
        </mxCell>
        <mxCell id="_jrcHpareaEvk5Rr-TCT-13" style="edgeStyle=orthogonalEdgeStyle;rounded=0;orthogonalLoop=1;jettySize=auto;html=1;exitX=0.5;exitY=1;exitDx=0;exitDy=0;exitPerimeter=0;entryX=0.5;entryY=0;entryDx=0;entryDy=0;curved=1;" edge="1" parent="1" source="_jrcHpareaEvk5Rr-TCT-2" target="_jrcHpareaEvk5Rr-TCT-4">
          <mxGeometry relative="1" as="geometry" />
        </mxCell>
        <mxCell id="_jrcHpareaEvk5Rr-TCT-2" value="&lt;font style=&quot;font-size: 16px;&quot;&gt;uart.cpp&lt;/font&gt;" style="shape=note;whiteSpace=wrap;html=1;backgroundOutline=1;darkOpacity=0.05;fillColor=#dae8fc;strokeColor=#6c8ebf;" vertex="1" parent="1">
          <mxGeometry x="380" y="250" width="70" height="90" as="geometry" />
        </mxCell>
        <mxCell id="_jrcHpareaEvk5Rr-TCT-15" style="edgeStyle=orthogonalEdgeStyle;rounded=0;orthogonalLoop=1;jettySize=auto;html=1;exitX=0.5;exitY=1;exitDx=0;exitDy=0;exitPerimeter=0;entryX=0.5;entryY=0;entryDx=0;entryDy=0;curved=1;" edge="1" parent="1" source="_jrcHpareaEvk5Rr-TCT-3" target="_jrcHpareaEvk5Rr-TCT-4">
          <mxGeometry relative="1" as="geometry" />
        </mxCell>
        <mxCell id="_jrcHpareaEvk5Rr-TCT-3" value="&lt;font style=&quot;font-size: 16px;&quot;&gt;uart.h&lt;/font&gt;" style="shape=note;whiteSpace=wrap;html=1;backgroundOutline=1;darkOpacity=0.05;fillColor=#dae8fc;strokeColor=#6c8ebf;" vertex="1" parent="1">
          <mxGeometry x="560" y="250" width="70" height="90" as="geometry" />
        </mxCell>
        <mxCell id="_jrcHpareaEvk5Rr-TCT-4" value="Functions" style="swimlane;fontStyle=0;childLayout=stackLayout;horizontal=1;startSize=30;horizontalStack=0;resizeParent=1;resizeParentMax=0;resizeLast=0;collapsible=1;marginBottom=0;whiteSpace=wrap;html=1;" vertex="1" parent="1">
          <mxGeometry x="430" y="400" width="140" height="120" as="geometry" />
        </mxCell>
        <mxCell id="_jrcHpareaEvk5Rr-TCT-6" value="sendPosition()" style="text;strokeColor=none;fillColor=none;align=left;verticalAlign=middle;spacingLeft=4;spacingRight=4;overflow=hidden;points=[[0,0.5],[1,0.5]];portConstraint=eastwest;rotatable=0;whiteSpace=wrap;html=1;" vertex="1" parent="_jrcHpareaEvk5Rr-TCT-4">
          <mxGeometry y="30" width="140" height="30" as="geometry" />
        </mxCell>
        <mxCell id="_jrcHpareaEvk5Rr-TCT-5" value="formatDouble()" style="text;strokeColor=none;fillColor=none;align=left;verticalAlign=middle;spacingLeft=4;spacingRight=4;overflow=hidden;points=[[0,0.5],[1,0.5]];portConstraint=eastwest;rotatable=0;whiteSpace=wrap;html=1;" vertex="1" parent="_jrcHpareaEvk5Rr-TCT-4">
          <mxGeometry y="60" width="140" height="30" as="geometry" />
        </mxCell>
        <mxCell id="_jrcHpareaEvk5Rr-TCT-8" value="delay()" style="text;strokeColor=none;fillColor=none;align=left;verticalAlign=middle;spacingLeft=4;spacingRight=4;overflow=hidden;points=[[0,0.5],[1,0.5]];portConstraint=eastwest;rotatable=0;whiteSpace=wrap;html=1;" vertex="1" parent="_jrcHpareaEvk5Rr-TCT-4">
          <mxGeometry y="90" width="140" height="30" as="geometry" />
        </mxCell>
        <mxCell id="_jrcHpareaEvk5Rr-TCT-10" style="edgeStyle=orthogonalEdgeStyle;rounded=0;orthogonalLoop=1;jettySize=auto;html=1;exitX=0.75;exitY=1;exitDx=0;exitDy=0;entryX=0;entryY=0;entryDx=20;entryDy=0;entryPerimeter=0;curved=1;" edge="1" parent="1" source="_jrcHpareaEvk5Rr-TCT-1" target="_jrcHpareaEvk5Rr-TCT-3">
          <mxGeometry relative="1" as="geometry" />
        </mxCell>
        <mxCell id="_jrcHpareaEvk5Rr-TCT-11" style="edgeStyle=orthogonalEdgeStyle;rounded=0;orthogonalLoop=1;jettySize=auto;html=1;exitX=0.25;exitY=1;exitDx=0;exitDy=0;entryX=0;entryY=0;entryDx=20;entryDy=0;entryPerimeter=0;curved=1;" edge="1" parent="1" source="_jrcHpareaEvk5Rr-TCT-1" target="_jrcHpareaEvk5Rr-TCT-2">
          <mxGeometry relative="1" as="geometry" />
        </mxCell>
        <mxCell id="_jrcHpareaEvk5Rr-TCT-17" value="" style="rounded=0;whiteSpace=wrap;html=1;fillColor=none;" vertex="1" parent="1">
          <mxGeometry x="315" y="50" width="370" height="500" as="geometry" />
        </mxCell>
        <mxCell id="_jrcHpareaEvk5Rr-TCT-19" style="edgeStyle=orthogonalEdgeStyle;rounded=0;orthogonalLoop=1;jettySize=auto;html=1;exitX=0.5;exitY=1;exitDx=0;exitDy=0;" edge="1" parent="1" source="_jrcHpareaEvk5Rr-TCT-17" target="_jrcHpareaEvk5Rr-TCT-17">
          <mxGeometry relative="1" as="geometry" />
        </mxCell>
        <mxCell id="_jrcHpareaEvk5Rr-TCT-20" value="&lt;h1&gt;UART-Module (C++)&lt;/h1&gt;" style="text;html=1;strokeColor=none;fillColor=none;spacing=5;spacingTop=-20;whiteSpace=wrap;overflow=hidden;rounded=0;" vertex="1" parent="1">
          <mxGeometry x="390" y="60" width="240" height="40" as="geometry" />
        </mxCell>
        <mxCell id="_jrcHpareaEvk5Rr-TCT-21" value="" style="endArrow=none;html=1;rounded=0;entryX=0.996;entryY=0.14;entryDx=0;entryDy=0;entryPerimeter=0;" edge="1" parent="1">
          <mxGeometry width="50" height="50" relative="1" as="geometry">
            <mxPoint x="315.74" y="110" as="sourcePoint" />
            <mxPoint x="684.26" y="110" as="targetPoint" />
          </mxGeometry>
        </mxCell>
      </root>
    </mxGraphModel>
  </diagram>
</mxfile>
